HIERARCHY
ROOT CG
{
	OFFSET 0.000000 0.000000 27.772259
	CHANNELS 6 Xposition Yposition Zposition Xrotation Yrotation Zrotation
	JOINT Pelvis
	{
		OFFSET 0.000000 0.000000 0.000000
		CHANNELS 3 Xrotation Yrotation Zrotation
		JOINT Spine
		{
			OFFSET -0.000017 -10.490843 -0.495483
			CHANNELS 3 Xrotation Yrotation Zrotation
			JOINT Spine1
			{
				OFFSET -0.000010 -22.678980 0.018061
				CHANNELS 3 Xrotation Yrotation Zrotation
				JOINT Spine2
				{
					OFFSET -0.000010 -22.678967 0.018061
					CHANNELS 3 Xrotation Yrotation Zrotation
					JOINT Spine3
					{
						OFFSET -0.000010 -22.678982 0.018059
						CHANNELS 3 Xrotation Yrotation Zrotation
						JOINT Neck
						{
							OFFSET -0.000012 -22.678986 -1.289251
							CHANNELS 3 Xrotation Yrotation Zrotation
							JOINT Neck1
							{
								OFFSET -0.000007 -16.255905 0.012947
								CHANNELS 3 Xrotation Yrotation Zrotation
								JOINT Head
								{
									OFFSET -0.000005 -10.784607 -0.287502
									CHANNELS 3 Xrotation Yrotation Zrotation
									JOINT Jaw01
									{
										OFFSET 0.000031 7.782959 5.073944
										CHANNELS 3 Xrotation Yrotation Zrotation
										JOINT Jaw02
										{
											OFFSET 0.000004 -34.927139 -18.883980
											CHANNELS 3 Xrotation Yrotation Zrotation
											End Site
											{
												OFFSET -0.000170 8.372803 -38.812450
											}
										}
									}
									JOINT Nose
									{
										OFFSET -0.000002 -25.700912 7.222265
										CHANNELS 3 Xrotation Yrotation Zrotation
										End Site
										{
											OFFSET -0.000090 0.641281 -21.715439
										}
									}
									JOINT L_EyeSocket
									{
										OFFSET 7.352326 -19.832718 14.164183
										CHANNELS 3 Xrotation Yrotation Zrotation
										JOINT L_Eye
										{
											OFFSET -0.000868 -0.001053 0.016003
											CHANNELS 3 Xrotation Yrotation Zrotation
											End Site
											{
												OFFSET -0.001505 -0.001846 0.027969
											}
										}
										JOINT L_Eyelid_Top
										{
											OFFSET -0.001004 -0.002625 0.032516
											CHANNELS 3 Xrotation Yrotation Zrotation
											End Site
											{
												OFFSET -0.013218 0.005753 0.024086
											}
										}
										JOINT L_Eyelid_Bottom
										{
											OFFSET -0.001194 -0.002777 0.035381
											CHANNELS 3 Xrotation Yrotation Zrotation
											End Site
											{
												OFFSET -0.010032 0.008636 -0.024754
											}
										}
									}
									JOINT R_EyeSocket
									{
										OFFSET -7.352252 -19.832748 14.164206
										CHANNELS 3 Xrotation Yrotation Zrotation
										JOINT R_Eye
										{
											OFFSET 0.000875 -0.001068 0.015991
											CHANNELS 3 Xrotation Yrotation Zrotation
											End Site
											{
												OFFSET 0.001505 -0.001846 0.027962
											}
										}
										JOINT R_Eyelid_Top
										{
											OFFSET 0.001021 -0.002625 0.032516
											CHANNELS 3 Xrotation Yrotation Zrotation
											End Site
											{
												OFFSET 0.013214 0.005753 0.024078
											}
										}
										JOINT R_Eyelid_Bottom
										{
											OFFSET 0.001170 -0.002762 0.035366
											CHANNELS 3 Xrotation Yrotation Zrotation
											End Site
											{
												OFFSET 0.010029 0.008636 -0.024746
											}
										}
									}
								}
								JOINT Neck_Fat
								{
									OFFSET 0.000044 -9.595100 -17.491512
									CHANNELS 3 Xrotation Yrotation Zrotation
									End Site
									{
										OFFSET -0.000036 15.369423 -0.000007
									}
								}
							}
						}
						JOINT L_Clavicle
						{
							OFFSET 4.567107 -11.666092 -3.750029
							CHANNELS 3 Xrotation Yrotation Zrotation
							JOINT L_UpperArm
							{
								OFFSET 20.725666 -0.000053 -0.000032
								CHANNELS 3 Xrotation Yrotation Zrotation
								JOINT L_Forearm
								{
									OFFSET 5.265112 -0.585754 -20.155697
									CHANNELS 3 Xrotation Yrotation Zrotation
									JOINT L_Hand
									{
										OFFSET 2.653017 -10.877708 -16.383667
										CHANNELS 3 Xrotation Yrotation Zrotation
										JOINT L_Finger0
										{
											OFFSET -4.206146 -4.328911 -5.034346
											CHANNELS 3 Xrotation Yrotation Zrotation
											JOINT L_Finger01
											{
												OFFSET 0.084272 -1.788536 -4.181065
												CHANNELS 3 Xrotation Yrotation Zrotation
												End Site
												{
													OFFSET 3.261885 3.094673 -0.685818
												}
											}
										}
										JOINT L_Finger1
										{
											OFFSET -1.039112 -6.775742 -3.499998
											CHANNELS 3 Xrotation Yrotation Zrotation
											JOINT L_Finger11
											{
												OFFSET 1.320335 -3.040672 -6.425793
												CHANNELS 3 Xrotation Yrotation Zrotation
												End Site
												{
													OFFSET -1.244579 6.832077 -2.013330
												}
											}
										}
										JOINT L_Finger2
										{
											OFFSET 2.531296 -5.656487 -3.286415
											CHANNELS 3 Xrotation Yrotation Zrotation
											JOINT L_Finger21
											{
												OFFSET 1.991665 -2.402016 -5.957748
												CHANNELS 3 Xrotation Yrotation Zrotation
												End Site
												{
													OFFSET -2.793068 5.800873 -1.944178
												}
											}
										}
										JOINT L_Finger3
										{
											OFFSET 5.474075 -3.302338 -2.655975
											CHANNELS 3 Xrotation Yrotation Zrotation
											JOINT L_Finger31
											{
												OFFSET 2.026943 -1.267532 -5.961166
												CHANNELS 3 Xrotation Yrotation Zrotation
												End Site
												{
													OFFSET -4.375172 4.343658 -1.800320
												}
											}
										}
										JOINT L_Finger4
										{
											OFFSET 4.825745 1.085899 -2.321970
											CHANNELS 3 Xrotation Yrotation Zrotation
											JOINT L_Finger41
											{
												OFFSET 3.358261 -1.829651 -3.744434
												CHANNELS 3 Xrotation Yrotation Zrotation
												End Site
												{
													OFFSET -3.843296 2.955200 -2.267633
												}
											}
										}
									}
								}
							}
						}
						JOINT R_Clavicle
						{
							OFFSET -4.567111 -11.666092 -3.750036
							CHANNELS 3 Xrotation Yrotation Zrotation
							JOINT R_UpperArm
							{
								OFFSET -20.725670 -0.000031 0.000038
								CHANNELS 3 Xrotation Yrotation Zrotation
								JOINT R_Forearm
								{
									OFFSET -5.265285 -0.585762 -20.155655
									CHANNELS 3 Xrotation Yrotation Zrotation
									JOINT R_Hand
									{
										OFFSET -2.653147 -10.877739 -16.383663
										CHANNELS 3 Xrotation Yrotation Zrotation
										JOINT R_Finger0
										{
											OFFSET 4.206116 -4.328888 -5.034388
											CHANNELS 3 Xrotation Yrotation Zrotation
											JOINT R_Finger01
											{
												OFFSET -0.084324 -1.788544 -4.181051
												CHANNELS 3 Xrotation Yrotation Zrotation
												End Site
												{
													OFFSET -3.261890 3.094666 -0.685791
												}
											}
										}
										JOINT R_Finger1
										{
											OFFSET 1.039101 -6.775711 -3.499994
											CHANNELS 3 Xrotation Yrotation Zrotation
											JOINT R_Finger11
											{
												OFFSET -1.320374 -3.040672 -6.425779
												CHANNELS 3 Xrotation Yrotation Zrotation
												End Site
												{
													OFFSET 1.244556 6.832077 -2.013342
												}
											}
										}
										JOINT R_Finger2
										{
											OFFSET -2.531307 -5.656464 -3.286409
											CHANNELS 3 Xrotation Yrotation Zrotation
											JOINT R_Finger21
											{
												OFFSET -1.991707 -2.402016 -5.957708
												CHANNELS 3 Xrotation Yrotation Zrotation
												End Site
												{
													OFFSET 2.793037 5.800858 -1.944197
												}
											}
										}
										JOINT R_Finger3
										{
											OFFSET -5.474091 -3.302330 -2.655947
											CHANNELS 3 Xrotation Yrotation Zrotation
											JOINT R_Finger31
											{
												OFFSET -2.026993 -1.267532 -5.961157
												CHANNELS 3 Xrotation Yrotation Zrotation
												End Site
												{
													OFFSET 4.375156 4.343674 -1.800358
												}
											}
										}
										JOINT R_Finger4
										{
											OFFSET -4.825756 1.085922 -2.321926
											CHANNELS 3 Xrotation Yrotation Zrotation
											JOINT R_Finger41
											{
												OFFSET -3.358307 -1.829651 -3.744390
												CHANNELS 3 Xrotation Yrotation Zrotation
												End Site
												{
													OFFSET 3.843273 2.955208 -2.267666
												}
											}
										}
									}
								}
							}
						}
					}
				}
			}
		}
		JOINT Tail01
		{
			OFFSET -0.000010 10.922326 -0.017508
			CHANNELS 3 Xrotation Yrotation Zrotation
			JOINT Tail02
			{
				OFFSET -0.000022 21.986111 0.000013
				CHANNELS 3 Xrotation Yrotation Zrotation
				JOINT Tail03
				{
					OFFSET -0.000022 21.986118 0.000002
					CHANNELS 3 Xrotation Yrotation Zrotation
					JOINT Tail04
					{
						OFFSET -0.000022 21.986122 0.000004
						CHANNELS 3 Xrotation Yrotation Zrotation
						JOINT Tail05
						{
							OFFSET -0.000022 21.986099 0.000010
							CHANNELS 3 Xrotation Yrotation Zrotation
							JOINT Tail06
							{
								OFFSET -0.000022 21.986099 0.000006
								CHANNELS 3 Xrotation Yrotation Zrotation
								JOINT Tail07
								{
									OFFSET -0.000022 21.986099 0.000000
									CHANNELS 3 Xrotation Yrotation Zrotation
									JOINT Tail08
									{
										OFFSET -0.000022 21.984848 0.000050
										CHANNELS 3 Xrotation Yrotation Zrotation
										JOINT Tail09
										{
											OFFSET -0.000025 21.926025 -1.606211
											CHANNELS 3 Xrotation Yrotation Zrotation
											JOINT Tail10
											{
												OFFSET -0.000027 21.750092 -3.203882
												CHANNELS 3 Xrotation Yrotation Zrotation
												End Site
												{
													OFFSET -0.000036 4.767395 21.461668
												}
											}
										}
									}
								}
							}
						}
					}
				}
			}
		}
		JOINT L_Thigh
		{
			OFFSET 24.788780 0.000021 -0.000034
			CHANNELS 3 Xrotation Yrotation Zrotation
			JOINT L_Calf
			{
				OFFSET 4.720837 4.161326 -21.049969
				CHANNELS 3 Xrotation Yrotation Zrotation
				JOINT L_Foot
				{
					OFFSET 2.154160 21.114433 -11.949743
					CHANNELS 3 Xrotation Yrotation Zrotation
					JOINT L_Toe0
					{
						OFFSET 4.557564 9.251841 -8.735286
						CHANNELS 3 Xrotation Yrotation Zrotation
						End Site
						{
							OFFSET 4.555542 -12.646044 1.018752
						}
					}
					JOINT L_Toe1
					{
						OFFSET 2.346291 5.845602 -11.687160
						CHANNELS 3 Xrotation Yrotation Zrotation
						End Site
						{
							OFFSET 5.347954 -12.298279 1.365644
						}
					}
					JOINT L_Toe2
					{
						OFFSET -0.356020 3.902458 -12.541145
						CHANNELS 3 Xrotation Yrotation Zrotation
						End Site
						{
							OFFSET 3.916235 -12.806129 1.542549
						}
					}
					JOINT L_Toe3
					{
						OFFSET -4.603447 3.183935 -12.435249
						CHANNELS 3 Xrotation Yrotation Zrotation
						End Site
						{
							OFFSET 3.810858 -12.587427 2.957583
						}
					}
					JOINT L_Toe4
					{
						OFFSET -7.144358 6.231495 -10.072764
						CHANNELS 3 Xrotation Yrotation Zrotation
						End Site
						{
							OFFSET 3.810858 -12.587425 2.957585
						}
					}
				}
			}
		}
		JOINT R_Thigh
		{
			OFFSET -24.788780 -0.000024 0.000034
			CHANNELS 3 Xrotation Yrotation Zrotation
			JOINT R_Calf
			{
				OFFSET -4.720922 4.161324 -21.049952
				CHANNELS 3 Xrotation Yrotation Zrotation
				JOINT R_Foot
				{
					OFFSET -2.154238 21.114414 -11.949730
					CHANNELS 3 Xrotation Yrotation Zrotation
					JOINT R_Toe0
					{
						OFFSET -4.557598 9.251823 -8.735270
						CHANNELS 3 Xrotation Yrotation Zrotation
						End Site
						{
							OFFSET -4.555508 -12.646051 1.018756
						}
					}
					JOINT R_Toe1
					{
						OFFSET -2.346325 5.845589 -11.687157
						CHANNELS 3 Xrotation Yrotation Zrotation
						End Site
						{
							OFFSET -5.347919 -12.298286 1.365654
						}
					}
					JOINT R_Toe2
					{
						OFFSET 0.355980 3.902462 -12.541145
						CHANNELS 3 Xrotation Yrotation Zrotation
						End Site
						{
							OFFSET -3.916199 -12.806131 1.542559
						}
					}
					JOINT R_Toe3
					{
						OFFSET 4.603411 3.183941 -12.435266
						CHANNELS 3 Xrotation Yrotation Zrotation
						End Site
						{
							OFFSET -3.810825 -12.587429 2.957591
						}
					}
					JOINT R_Toe4
					{
						OFFSET 7.144323 6.231503 -10.072779
						CHANNELS 3 Xrotation Yrotation Zrotation
						End Site
						{
							OFFSET -3.810825 -12.587433 2.957584
						}
					}
				}
			}
		}
	}
}
MOTION
Frames: 5
Frame Time: 0.033333
0.000000 0.000000 52.000000 0.000000 -0.000000 0.000044 -8.842944 -0.000088 0.000007 10.961080 0.000007 0.000018 2.118162 -0.000001 0.000003 4.876472 -0.000002 0.000004 -2.163955 0.000002 -0.000003 -6.986525 0.000003 -0.000007 -13.013542 0.000008 -0.000015 14.417327 -0.000016 -0.000007 -11.537027 -0.000053 0.000048 0.000008 -0.000000 -0.000000 0.000020 -0.000000 -0.000000 -0.000004 0.000007 -0.000020 0.000124 -0.000077 0.000017 0.000002 -0.000003 -0.000003 0.000002 -0.000005 0.000010 0.000007 0.000000 0.000005 0.000121 0.000077 -0.000015 0.000002 -0.000004 0.000000 -0.000001 0.000003 -0.000000 -0.000000 0.000000 -0.000000 -0.000873 4.114585 11.904649 26.136793 -13.607902 -29.332425 -23.413091 4.857590 -5.359898 -64.573455 -13.412976 -14.628594 4.814241 45.237880 32.496824 0.108397 -0.103828 0.046716 31.239878 13.715133 -10.715219 -21.103486 -3.971328 -2.962969 30.256512 6.344415 -6.448662 -32.343282 -14.390353 -8.157529 20.872344 -11.244811 -8.185806 -18.722433 -18.085402 -5.094119 18.635517 -29.682657 -0.393830 0.555237 0.804608 0.101804 -0.000908 -4.114892 -11.904634 1.174936 14.107401 33.206232 -12.983076 -2.414546 3.207784 -53.408777 5.511579 0.402003 4.813895 -45.237815 -32.497125 0.108386 0.103824 -0.046713 31.239933 -13.715162 10.714981 -21.103475 3.971276 2.963139 30.256573 -6.344448 6.448430 -32.343295 14.390251 8.157743 20.872414 11.244831 8.185619 -18.722469 18.085330 5.094270 18.635556 29.682657 0.393679 0.555237 -0.804611 -0.101801 -12.821442 -0.000004 0.000031 -8.690508 -1.231629 3.950030 3.553603 -0.181041 4.130726 10.254868 -0.516811 -5.348514 8.081715 -0.227258 -5.341328 3.149386 -0.198539 -9.484002 2.260959 -0.385533 -9.446043 3.251357 -0.480232 7.201988 2.529276 0.390782 7.076520 2.504827 0.702950 7.052490 -27.408919 -10.892140 11.838779 -10.432411 -0.073219 -2.410100 -27.253652 -19.732217 -8.454176 -2.318600 -4.298944 -0.446778 8.087294 0.872402 0.413568 17.133828 6.636287 3.687453 20.253534 6.370521 -9.434378 -1.696111 7.323589 -8.103842 -11.861585 6.993937 -18.227400 -11.338149 0.058828 2.619276 -43.150492 17.417223 11.350121 -2.318615 4.298933 0.446773 8.087297 -0.872381 -0.413611 17.133844 -6.636251 -3.687517 20.253553 -6.370489 9.434314 -1.696088 -7.323602 8.103842 
0.000000 0.000000 51.965599 0.000000 -0.000000 0.000044 -8.904702 -0.000093 0.000014 10.958881 0.000007 0.000018 2.166165 -0.000001 0.000003 4.924474 -0.000002 0.000004 -2.163956 0.000002 -0.000003 -7.000054 0.000003 -0.000007 -13.013542 0.000008 -0.000015 14.353955 -0.000016 -0.000007 -11.506628 -0.000053 0.000048 0.000010 0.000000 -0.000000 0.000021 0.000000 -0.000000 -0.000005 0.000007 -0.000018 0.000123 -0.000076 0.000019 0.000000 -0.000002 0.000003 0.000007 0.000001 0.000012 0.000007 0.000000 0.000007 0.000122 0.000076 -0.000020 0.000002 0.000001 0.000003 0.000004 0.000001 0.000000 -0.000000 0.000000 -0.000000 -0.000861 4.028599 11.904926 26.087084 -13.506199 -29.391144 -23.352511 4.842266 -5.348659 -64.602450 -13.405513 -14.629756 4.814246 45.237876 32.496821 0.108394 -0.103826 0.046722 31.239878 13.715132 -10.715215 -21.103486 -3.971326 -2.962969 30.256515 6.344415 -6.448659 -32.343285 -14.390353 -8.157531 20.872338 -11.244811 -8.185804 -18.722433 -18.085393 -5.094119 18.635507 -29.682650 -0.393832 0.555237 0.804609 0.101804 -0.000926 -4.028908 -11.904917 1.138732 13.989769 33.227320 -12.912096 -2.399352 3.191721 -53.446934 5.505168 0.408394 4.813896 -45.237818 -32.497125 0.108387 0.103821 -0.046714 31.239933 -13.715167 10.714981 -21.103469 3.971279 2.963137 30.256573 -6.344447 6.448433 -32.343299 14.390252 8.157739 20.872414 11.244831 8.185619 -18.722471 18.085330 5.094269 18.635548 29.682660 0.393673 0.555232 -0.804613 -0.101795 -12.771927 -0.000004 0.000031 -8.666942 -1.231629 3.950029 3.568932 -0.182155 4.130725 10.270077 -0.519022 -5.348519 8.062585 -0.226293 -5.341328 3.137383 -0.199046 -9.484003 2.249204 -0.388011 -9.446056 3.240171 -0.484613 7.202085 2.517634 0.387818 7.076684 2.504828 0.702950 7.052489 -27.478155 -10.930123 11.778715 -10.188532 -0.076522 -2.353749 -27.347312 -19.721374 -8.464802 -2.318600 -4.298939 -0.446779 8.087297 0.872401 0.413575 17.133825 6.636283 3.687459 20.253534 6.370521 -9.434378 -1.696110 7.323589 -8.103841 -11.915268 7.043090 -18.180107 -11.089523 0.063100 2.561886 -43.278319 17.399726 11.364923 -2.318614 4.298938 0.446774 8.087298 -0.872373 -0.413608 17.133839 -6.636250 -3.687513 20.253551 -6.370489 9.434319 -1.696088 -7.323603 8.103848 
-0.000000 0.000000 51.930180 0.000000 -0.000000 0.000044 -8.968312 -0.000091 0.000007 10.956604 0.000007 0.000018 2.215587 -0.000001 0.000003 4.973897 -0.000002 0.000004 -2.163956 0.000002 -0.000003 -7.013575 0.000003 -0.000007 -13.013542 0.000008 -0.000015 14.289692 -0.000016 -0.000007 -11.475193 -0.000053 0.000048 0.000010 0.000000 -0.000000 0.000020 0.000000 -0.000000 -0.000005 0.000007 -0.000017 0.000123 -0.000076 0.000022 0.000006 0.000003 -0.000001 0.000003 -0.000006 0.000012 0.000007 0.000000 0.000009 0.000123 0.000075 -0.000019 0.000002 -0.000001 0.000003 -0.000001 0.000004 0.000002 -0.000000 0.000000 -0.000000 -0.000855 3.940624 11.905103 26.035979 -13.401309 -29.451448 -23.290475 4.826589 -5.337146 -64.632359 -13.397769 -14.630899 4.814248 45.237880 32.496821 0.108392 -0.103824 0.046717 31.239882 13.715131 -10.715216 -21.103488 -3.971328 -2.962969 30.256522 6.344417 -6.448661 -32.343282 -14.390351 -8.157527 20.872343 -11.244816 -8.185804 -18.722433 -18.085393 -5.094123 18.635512 -29.682657 -0.393832 0.555236 0.804611 0.101800 -0.000891 -3.940938 -11.905109 1.101416 13.868465 33.248879 -12.839051 -2.383745 3.175172 -53.486067 5.498567 0.414898 4.813897 -45.237818 -32.497128 0.108388 0.103822 -0.046708 31.239933 -13.715163 10.714980 -21.103468 3.971273 2.963140 30.256577 -6.344446 6.448433 -32.343295 14.390251 8.157739 20.872416 11.244831 8.185618 -18.722467 18.085330 5.094266 18.635556 29.682660 0.393678 0.555240 -0.804614 -0.101800 -12.720944 -0.000003 0.000031 -8.642675 -1.231629 3.950029 3.584719 -0.183300 4.130726 10.285725 -0.521296 -5.348521 8.042887 -0.225300 -5.341326 3.125026 -0.199567 -9.484008 2.237104 -0.390563 -9.446059 3.228656 -0.489121 7.202207 2.505646 0.384768 7.076866 2.504827 0.702950 7.052488 -27.548388 -10.968681 11.717239 -9.939573 -0.079646 -2.296217 -27.514973 -19.705142 -8.491627 -2.318599 -4.298945 -0.446776 8.087294 0.872400 0.413575 17.133832 6.636282 3.687459 20.253534 6.370515 -9.434378 -1.696109 7.323591 -8.103839 -11.969683 7.093150 -18.131647 -10.835684 0.067207 2.503280 -43.419390 17.380453 11.381851 -2.318615 4.298923 0.446772 8.087303 -0.872373 -0.413613 17.133842 -6.636252 -3.687512 20.253551 -6.370488 9.434317 -1.696090 -7.323605 8.103844 
-0.000000 0.000000 51.893795 0.000000 -0.000000 0.000044 -9.033616 -0.000094 0.000020 10.954296 0.000007 0.000018 2.266355 -0.000001 0.000002 5.024662 -0.000002 0.000004 -2.163955 0.000002 -0.000003 -7.027095 0.000003 -0.000007 -13.013542 0.000008 -0.000015 14.224572 -0.000016 -0.000007 -11.442859 -0.000054 0.000048 0.000009 0.000000 -0.000000 0.000020 0.000000 -0.000000 -0.000005 0.000007 -0.000015 0.000121 -0.000075 0.000024 0.000005 0.000005 0.000003 0.000003 -0.000006 0.000013 0.000007 -0.000000 0.000010 0.000123 0.000075 -0.000022 0.000001 -0.000002 -0.000001 0.000000 -0.000002 -0.000003 -0.000000 -0.000000 -0.000000 -0.000851 3.850629 11.905226 25.983588 -13.293397 -29.513193 -23.226299 4.810381 -5.325216 -64.663156 -13.389762 -14.632015 4.814246 45.237886 32.496824 0.108393 -0.103827 0.046716 31.239882 13.715135 -10.715221 -21.103478 -3.971326 -2.962969 30.256522 6.344417 -6.448665 -32.343282 -14.390351 -8.157531 20.872338 -11.244815 -8.185806 -18.722431 -18.085393 -5.094121 18.635515 -29.682653 -0.393836 0.555234 0.804613 0.101803 -0.000893 -3.850937 -11.905210 1.062885 13.743679 33.270927 -12.764032 -2.367737 3.158158 -53.526215 5.491745 0.421522 4.813900 -45.237822 -32.497128 0.108386 0.103826 -0.046712 31.239933 -13.715164 10.714980 -21.103475 3.971280 2.963136 30.256570 -6.344447 6.448433 -32.343306 14.390252 8.157743 20.872414 11.244829 8.185618 -18.722464 18.085330 5.094268 18.635555 29.682660 0.393673 0.555232 -0.804612 -0.101798 -12.668580 -0.000003 0.000031 -8.617744 -1.231629 3.950029 3.600926 -0.184476 4.130724 10.301810 -0.523632 -5.348527 8.022653 -0.224282 -5.341323 3.112331 -0.200101 -9.483997 2.224676 -0.393182 -9.446062 3.216825 -0.493753 7.202310 2.493336 0.381636 7.077049 2.504825 0.702950 7.052490 -27.619547 -11.007796 11.654438 -9.685910 -0.082572 -2.237580 -27.576057 -19.697058 -8.495970 -2.318602 -4.298941 -0.446776 8.087296 0.872399 0.413568 17.133828 6.636280 3.687462 20.253538 6.370519 -9.434378 -1.696112 7.323590 -8.103841 -12.024761 7.144064 -18.082110 -10.577046 0.071121 2.443545 -43.563329 17.360729 11.399006 -2.318616 4.298933 0.446773 8.087296 -0.872373 -0.413606 17.133837 -6.636250 -3.687510 20.253548 -6.370483 9.434315 -1.696089 -7.323602 8.103844 
0.000000 0.000000 51.856506 0.000000 -0.000000 0.000044 -9.100559 -0.000095 0.000013 10.951904 0.000007 0.000018 2.318390 -0.000001 0.000002 5.076697 -0.000002 0.000004 -2.163956 0.000002 -0.000003 -7.040606 0.000003 -0.000007 -13.013543 0.000008 -0.000015 14.158691 -0.000016 -0.000007 -11.409719 -0.000054 0.000048 0.000010 0.000000 -0.000000 0.000020 0.000000 -0.000000 -0.000004 0.000007 -0.000020 0.000121 -0.000074 0.000022 0.000006 0.000004 -0.000000 0.000007 0.000001 0.000007 0.000007 0.000000 0.000005 0.000124 0.000075 -0.000024 0.000001 -0.000002 -0.000003 0.000001 -0.000002 -0.000003 -0.000000 -0.000000 -0.000000 -0.000892 3.758575 11.905322 25.929953 -13.182642 -29.576290 -23.160215 4.793712 -5.312914 -64.694780 -13.381485 -14.633072 4.814250 45.237886 32.496824 0.108398 -0.103825 0.046714 31.239882 13.715133 -10.715218 -21.103486 -3.971327 -2.962971 30.256515 6.344418 -6.448664 -32.343282 -14.390351 -8.157533 20.872343 -11.244815 -8.185808 -18.722431 -18.085393 -5.094120 18.635510 -29.682650 -0.393834 0.555235 0.804608 0.101803 -0.000937 -3.758882 -11.905307 1.023205 13.615594 33.293409 -12.687062 -2.351339 3.140674 -53.567442 5.484673 0.428272 4.813897 -45.237822 -32.497121 0.108392 0.103823 -0.046714 31.239940 -13.715164 10.714980 -21.103473 3.971278 2.963138 30.256580 -6.344449 6.448432 -32.343295 14.390249 8.157737 20.872423 11.244830 8.185619 -18.722467 18.085330 5.094266 18.635556 29.682660 0.393675 0.555237 -0.804614 -0.101798 -12.614923 -0.000003 0.000031 -8.592199 -1.231629 3.950023 3.617544 -0.185682 4.130723 10.318292 -0.526026 -5.348530 8.001918 -0.223239 -5.341322 3.099323 -0.200647 -9.484006 2.211935 -0.395867 -9.446071 3.204702 -0.498498 7.202430 2.480719 0.378428 7.077237 2.504828 0.702950 7.052490 -27.691532 -11.047465 11.590399 -9.427889 -0.085284 -2.177926 -27.727764 -19.682170 -8.519861 -2.318597 -4.298942 -0.446778 8.087297 0.872404 0.413570 17.133828 6.636285 3.687458 20.253538 6.370517 -9.434376 -1.696108 7.323588 -8.103839 -12.080370 7.195744 -18.031532 -10.313952 0.074829 2.382763 -43.685992 17.343710 11.411951 -2.318615 4.298931 0.446773 8.087296 -0.872380 -0.413613 17.133840 -6.636251 -3.687513 20.253548 -6.370489 9.434317 -1.696090 -7.323601 8.103845 
